<?xml version="1.0" encoding="utf-8"?>
<!-- Generator: Adobe Illustrator 15.1.0, SVG Export Plug-In . SVG Version: 6.00 Build 0)  -->
<!DOCTYPE svg PUBLIC "-//W3C//DTD SVG 1.1//EN" "http://www.w3.org/Graphics/SVG/1.1/DTD/svg11.dtd">
<svg version="1.1" id="Layer_1" xmlns="http://www.w3.org/2000/svg" xmlns:xlink="http://www.w3.org/1999/xlink" x="0px" y="0px"
	 width="414.3334961px" height="96.6669922px" viewBox="0 0 414.3334961 96.6669922"
	 enable-background="new 0 0 414.3334961 96.6669922" xml:space="preserve">
<path fill="#38383F" d="M9.6337891,93h9.699707V70.5c0-2.5996094-0.199707-4.4003906-0.199707-4.4003906h0.199707
	c0,0,4.300293,8.1005859,15.5,8.1005859c13.2001953,0,23-10.4003906,23-26.5c0-15.7001953-8.699707-26.5-22.2998047-26.5
	c-12.6000977,0-16.800293,9-16.800293,9h-0.199707c0,0,0.1000977-1.2001953,0.1000977-2.7001953
	c0-3.2001953-1.7001953-5.0996094-6.2001953-5.0996094H3.3334961v8.2998047h4.1000977
	c1.3999023,0,2.2001953,0.7001953,2.2001953,2.2001953V93z M19.0336914,47.9003906
	c0-12.9003906,7.1000977-18.2001953,14.6000977-18.2001953c8.3999023,0,14.2998047,7.0996094,14.2998047,18.0996094
	c0,11.5-6.6000977,18.1005859-14.6000977,18.1005859C23.9335938,65.9003906,19.0336914,56.9003906,19.0336914,47.9003906
	 M176.0297852,73h9.7001953V52.2998047c0-3.0996094,0.2998047-6.2001953,1.1992188-9.0996094
	c2.3007813-7.5,8-11.9003906,14.1992188-11.9003906c1.6015625,0,2.9013672,0.2998047,2.9013672,0.2998047V22
	c0,0-1.2998047-0.2001953-2.6005859-0.2001953c-7.7998047,0-13.5996094,5.7998047-16,13.2001953h-0.1992188
	c0,0,0.1992188-1.5,0.1992188-3.5v-3.2001953c0-4.0996094-2.0996094-5.8994141-6.5-5.8994141h-9.1992188v8.2998047h4.0996094
	c1.4003906,0,2.2001953,0.7001953,2.2001953,2.2001953V73z M216.730957,66.5996094c0,4.5,1.8974609,6.4003906,6.3974609,6.4003906
	h9.5v-8.2998047h-4.0986328c-1.4013672,0-2.1992188-0.7001953-2.1992188-2.2001953V28.7998047
	c0-4.5-1.9013672-6.3994141-6.4013672-6.3994141h-9.5v8.2998047h4.1005859c1.3994141,0,2.2011719,0.7001953,2.2011719,2.2001953
	V66.5996094z M238.3286133,46.5c0,14.5996094,8.6005859,25.9003906,22.5986328,25.9003906
	c7.4013672,0,12.1025391-2.8007813,15.1025391-7.7001953h0.1992188c0,0-0.1992188,1.5996094-0.1992188,3.2001953v3.3994141
	c0,10.2001953-7.2011719,14.1005859-16,14.1005859C252.4291992,85.4003906,246.2290039,82,246.2290039,82l-3.2998047,7.7998047
	c5,2.5,11.1992188,4.2001953,17.2998047,4.2001953c12.8007813,0,25.5-6.4003906,25.5-23.0996094V32.7001953
	c0-1.2998047,0.8994141-2,2.2001953-2h4v-8.2998047h-9.3994141c-4,0-5.6005859,2.0996094-5.6005859,5.0996094v1.5996094h-0.2001953
	c0,0-3.6005859-7.8994141-16.1992188-7.8994141C246.4291992,21.2001953,238.3286133,32,238.3286133,46.5 M262.8286133,64
	c-9.0996094,0-14.5996094-7.2001953-14.5996094-17.7001953c0-10.2998047,5-16.7001953,13.8007813-16.7001953
	c7.7988281,0,14.2988281,3.8007813,14.2988281,17C276.3286133,59.7998047,269.8286133,64,262.8286133,64 M294.9272461,47.5996094
	c0,15.4003906,12.1005859,26.6005859,27.1992188,26.6005859c15.1025391,0,27.3007813-11.2001953,27.3007813-26.6005859
	c0-15.2998047-12.1982422-26.3994141-27.3007813-26.3994141C307.027832,21.2001953,294.9272461,32.2998047,294.9272461,47.5996094
	 M304.8286133,47.5996094c0-10.5,7.7978516-18,17.2978516-18c9.6025391,0,17.4013672,7.5,17.4013672,18
	c0,10.6005859-7.7988281,18.2001953-17.4013672,18.2001953C312.6264648,65.7998047,304.8286133,58.2001953,304.8286133,47.5996094
	 M359.7270508,73h9.6982422V49.2998047c0-2.5,0.1992188-4.7998047,0.9013672-6.7998047
	c2-7.2998047,8.1992188-12.4003906,16-12.4003906c8.0986328,0,9.5,5.6005859,9.5,12.7001953v23.7998047
	c0,4.5,1.9003906,6.4003906,6.4003906,6.4003906h9.5996094v-8.2998047h-4.0996094
	c-1.4003906,0-2.2011719-0.7001953-2.2011719-2.2001953V40.5996094c0-12.8994141-5.4013672-19.3994141-17.4013672-19.3994141
	c-11,0-17,7.2001953-19,11.5996094h-0.1992188c0,0,0.1992188-1.2998047,0.1992188-2.8994141V28
	c0-3.7001953-2.0986328-5.5996094-6.3974609-5.5996094h-9.3017578v8.2998047h4.1005859
	c1.3994141,0,2.2011719,0.7001953,2.2011719,2.2001953V73z"/>
<path fill="#38383F" d="M74.0512695,44.1933594c0.2954102-8.8808594,6.8164063-15.2763672,15.1313477-15.2929688
	c6.2998047-0.0126953,10.7890625,4.5058594,11.6640625,10.5683594L74.0512695,44.1933594z M111.0825195,42.9003906
	c0-9.2333984-6.4648438-21.7001953-21.7998047-21.7001953c-14.4003906,0-25.4003906,10.3994141-25.4003906,26.5
	c0,15,10.9003906,26.5,26.9003906,26.5c12,0,19.5-7.4003906,19.5-7.4003906l-4.2001953-6.8994141
	c0,0-6.1000977,5.8994141-14.7998047,5.8994141c-9,0-15.5610352-5.7998047-17.1240234-14.2998047l36.875-6.8125
	C111.0336914,44.6875,111.0825195,44.2001953,111.0825195,42.9003906"/>
<path fill="#38383F" d="M127.2514648,44.1933594c0.2949219-8.8808594,6.8164063-15.2763672,15.1308594-15.2929688
	c6.3007813-0.0126953,10.7890625,4.5058594,11.6640625,10.5683594L127.2514648,44.1933594z M164.2827148,42.9003906
	c0-9.2333984-6.4648438-21.7001953-21.7998047-21.7001953c-14.4003906,0-25.4003906,10.3994141-25.4003906,26.5
	c0,15,10.9003906,26.5,26.9003906,26.5c12,0,19.5-7.4003906,19.5-7.4003906l-4.2001953-6.8994141
	c0,0-6.0996094,5.8994141-14.7998047,5.8994141c-9,0-15.5615234-5.7998047-17.1240234-14.2998047l36.875-6.8125
	C164.2338867,44.6875,164.2827148,44.2001953,164.2827148,42.9003906"/>
<path fill="#38383F" d="M226.8120117,7.4667969c0-3.0439453-2.46875-5.5126953-5.5126953-5.5126953
	s-5.5117188,2.46875-5.5117188,5.5126953s2.4677734,5.5126953,5.5117188,5.5126953S226.8120117,10.5107422,226.8120117,7.4667969"/>
</svg>
