<?xml version="1.0" encoding="utf-8"?>
<!-- Generator: Adobe Illustrator 15.1.0, SVG Export Plug-In . SVG Version: 6.00 Build 0)  -->
<!DOCTYPE svg PUBLIC "-//W3C//DTD SVG 1.1//EN" "http://www.w3.org/Graphics/SVG/1.1/DTD/svg11.dtd">
<svg version="1.1" id="Layer_1" xmlns="http://www.w3.org/2000/svg" xmlns:xlink="http://www.w3.org/1999/xlink" x="0px" y="0px"
	 width="926.5px" height="204px" viewBox="0 0 926.5 204" enable-background="new 0 0 926.5 204" xml:space="preserve">
<g>
	<rect x="155.24" y="49.5" fill="#FFFFFF" stroke="#000000" stroke-miterlimit="10" width="180" height="101"/>
	<rect x="167.74" y="88.5" fill="none" width="155" height="40"/>
	<text transform="matrix(1 0 0 1 203.6746 84.5996)" enable-background="new    "><tspan x="0" y="0" font-family="'QuicksandBook-Regular'" font-size="14">middleware</tspan><tspan x="30.906" y="39.6" font-family="'QuicksandBook-Regular'" font-size="33">A</tspan></text>
</g>
<g>
	<rect x="368.073" y="49.5" fill="#FFFFFF" stroke="#000000" stroke-miterlimit="10" width="180" height="101"/>
	<text transform="matrix(1 0 0 1 416.5081 84.5996)" enable-background="new    "><tspan x="0" y="0" font-family="'QuicksandBook-Regular'" font-size="14">middleware</tspan><tspan x="31.765" y="39.6" font-family="'QuicksandBook-Regular'" font-size="33">B</tspan></text>
	<rect x="380.573" y="88.5" fill="none" width="155" height="40"/>
</g>
<g>
	<g>
		<line fill="none" stroke="#000000" stroke-miterlimit="10" x1="114" y1="102.139" x2="179.01" y2="102.139"/>
		<g>
			<polygon points="175.166,106.229 174.26,105.496 179.052,102.141 174.26,98.781 175.166,98.05 181,102.141 			"/>
		</g>
	</g>
</g>
<g>
	<g>
		<line fill="none" stroke="#000000" stroke-miterlimit="10" x1="320" y1="102.139" x2="385.01" y2="102.139"/>
		<g>
			<polygon points="381.166,106.229 380.26,105.496 385.052,102.141 380.26,98.781 381.166,98.05 387,102.141 			"/>
		</g>
	</g>
</g>
<rect x="841.75" y="88.5" fill="none" width="155" height="40"/>
<text transform="matrix(1 0 0 1 825.863 111.5996)" font-family="'QuicksandBook-Regular'" font-size="33">res</text>
<text transform="matrix(1 0 0 1 42.863 111.5996)" font-family="'QuicksandBook-Regular'" font-size="33">req</text>
<g>
	<rect x="580.906" y="50.5" fill="#FFFFFF" stroke="#000000" stroke-miterlimit="10" width="180" height="101"/>
	<text transform="matrix(1 0 0 1 629.3416 85.5996)" enable-background="new    "><tspan x="0" y="0" font-family="'QuicksandBook-Regular'" font-size="14">middleware</tspan><tspan x="28.844" y="39.6" font-family="'QuicksandBook-Regular'" font-size="33">C</tspan></text>
	<rect x="593.406" y="89.5" fill="none" width="155" height="40"/>
</g>
<g>
	<g>
		<line fill="none" stroke="#000000" stroke-miterlimit="10" x1="532" y1="102.139" x2="597.01" y2="102.139"/>
		<g>
			<polygon points="593.166,106.229 592.26,105.496 597.052,102.141 592.26,98.781 593.166,98.05 599,102.141 			"/>
		</g>
	</g>
</g>
<g>
	<g>
		<line fill="none" stroke="#000000" stroke-miterlimit="10" x1="743" y1="102.139" x2="808.01" y2="102.139"/>
		<g>
			<polygon points="804.166,106.229 803.26,105.496 808.052,102.141 803.26,98.781 804.166,98.05 810,102.141 			"/>
		</g>
	</g>
</g>
</svg>
