<?xml version="1.0" encoding="utf-8"?>
<!-- Generator: Adobe Illustrator 15.1.0, SVG Export Plug-In . SVG Version: 6.00 Build 0)  -->
<!DOCTYPE svg PUBLIC "-//W3C//DTD SVG 1.1//EN" "http://www.w3.org/Graphics/SVG/1.1/DTD/svg11.dtd">
<svg version="1.1" id="Layer_1" xmlns="http://www.w3.org/2000/svg" xmlns:xlink="http://www.w3.org/1999/xlink" x="0px" y="0px"
	 width="926.5px" height="204px" viewBox="0 73.5 926.5 204" enable-background="new 0 73.5 926.5 204" xml:space="preserve">
<rect x="44.75" y="128.5" fill="#FFFFFF" stroke="#000000" stroke-miterlimit="10" width="180" height="101"/>
<rect x="266.75" y="128.5" fill="#FFFFFF" stroke="#000000" stroke-miterlimit="10" width="180" height="101"/>
<rect x="488.5" y="128.5" fill="#FFFFFF" stroke="#000000" stroke-miterlimit="10" width="180" height="101"/>
<rect x="706.75" y="128.5" fill="#FFFFFF" stroke="#000000" stroke-miterlimit="10" width="180" height="101"/>
<rect x="57.25" y="167.5" fill="none" width="155" height="40"/>
<text transform="matrix(1 0 0 1 109.7195 190.6003)" font-family="'QuicksandBook-Regular'" font-size="33">OS</text>
<rect x="279.25" y="167.5" fill="none" width="155" height="40"/>
<text transform="matrix(1 0 0 1 301.5583 190.6003)" font-family="'QuicksandBook-Regular'" font-size="33">Server</text>
<rect x="501" y="167.5" fill="none" width="155" height="40"/>
<text transform="matrix(1 0 0 1 547.5623 190.6003)" font-family="'QuicksandBook-Regular'" font-size="33">PHP</text>
<rect x="719.25" y="167.5" fill="none" width="155" height="40"/>
<text transform="matrix(1 0 0 1 729.0681 190.6003)" font-family="'QuicksandBook-Regular'" font-size="33">app.php</text>
<g>
	<g>
		<line fill="none" stroke="#000000" stroke-miterlimit="10" x1="214.5" y1="153.139" x2="279.51" y2="153.139"/>
		<g>
			<polygon points="275.666,157.229 274.76,156.496 279.552,153.14 274.76,149.782 275.666,149.05 281.5,153.14 			"/>
		</g>
	</g>
</g>
<g>
	<g>
		<line fill="none" stroke="#000000" stroke-miterlimit="10" x1="433.5" y1="153.139" x2="498.51" y2="153.139"/>
		<g>
			<polygon points="494.666,157.229 493.76,156.496 498.552,153.14 493.76,149.782 494.666,149.05 500.5,153.14 			"/>
		</g>
	</g>
</g>
<g>
	<g>
		<line fill="none" stroke="#000000" stroke-miterlimit="10" x1="650.833" y1="153.139" x2="715.843" y2="153.139"/>
		<g>
			<polygon points="711.999,157.229 711.093,156.496 715.885,153.14 711.093,149.782 711.999,149.05 717.833,153.14 			"/>
		</g>
	</g>
</g>
<g>
	<g>
		<line fill="none" stroke="#000000" stroke-miterlimit="10" x1="652.823" y1="205.805" x2="717.833" y2="205.805"/>
		<g>
			<polygon points="650.833,205.806 656.667,201.717 657.573,202.449 652.78,205.806 657.573,209.163 656.667,209.895 			"/>
		</g>
	</g>
</g>
<g>
	<g>
		<line fill="none" stroke="#000000" stroke-miterlimit="10" x1="434.157" y1="205.805" x2="499.167" y2="205.805"/>
		<g>
			<polygon points="432.167,205.806 438.001,201.717 438.907,202.449 434.114,205.806 438.907,209.163 438.001,209.895 			"/>
		</g>
	</g>
</g>
<g>
	<g>
		<line fill="none" stroke="#000000" stroke-miterlimit="10" x1="214.157" y1="205.805" x2="279.168" y2="205.805"/>
		<g>
			<polygon points="212.167,205.806 218.001,201.717 218.907,202.449 214.115,205.806 218.907,209.163 218.001,209.895 			"/>
		</g>
	</g>
</g>
</svg>
